# xmcd
#
# Track frame offsets: 
#        150
#        16136
#        27988
#        43112
#        57975
#        74665
#        87013
#        104739
#        121530
#        134310
#        145740
#        165740
#        185940
#        202760
#        218986
#        234378
#        251968
#        270350
#        286267
#        297594
#        311647
#        324547
#        341991
#
# Disc length: 4778 seconds
#
# Revision: 1
# Processed by: cddbd v1.5.2PL0 Copyright (c) Steve Scherf et al.
# Submitted via: ExactAudioCopyFreeDBPlugin 1.0
#
DISCID=6712a817
DTITLE=Tom Astor and Band - unplugged live
DYEAR=2009
DGENRE=Country
TTITLE0=Wilde Gefühle
TTITLE1=Some broken hearts never mind
TTITLE2=Viel vergeigt und viel erreicht
TTITLE3=Ich geh' gern vergessene Straßen
TTITLE4=Doch ich habe dich geliebt
TTITLE5=Freunde
TTITLE6=Johnny Cash Hit.Medley
TTITLE7=Die Antwort weiß ganz allein der Wind
TTITLE8=Hab' ich heut' schon gelebt
TTITLE9=Und dann packt mich der Blues
TTITLE10=Wir werden nicht älter, wir werden nur noch besser
TTITLE11=Wabash Cannonball
TTITLE12=Irgendwie wird's schon geh'n
TTITLE13=Musik ist Wein für durstige Seelen
TTITLE14=Help me make it through the night
TTITLE15=mit einer starken Frau
TTITLE16=Orange Blossom Special
TTITLE17=International Airport
TTITLE18=Rocky Top
TTITLE19=Take me home, country roads
TTITLE20=Hallo, guten Morgen Deutschland
TTITLE21=Junger Adler
TTITLE22=Alles klar - kein Problem
EXTD=
EXTT0=
EXTT1=
EXTT2=
EXTT3=
EXTT4=
EXTT5=
EXTT6=Ring of fire, I walk the line, Folsom prison blues
EXTT7=
EXTT8=
EXTT9=
EXTT10=
EXTT11=
EXTT12=
EXTT13=
EXTT14=
EXTT15=
EXTT16=
EXTT17=
EXTT18=
EXTT19=
EXTT20=
EXTT21=
EXTT22=
PLAYORDER=
